<svg width="228" height="228" xmlns="http://www.w3.org/2000/svg" xmlns:xlink="http://www.w3.org/1999/xlink" overflow="hidden"><defs><clipPath id="clip0"><rect x="368" y="115" width="228" height="228"/></clipPath><clipPath id="clip1"><rect x="384" y="125" width="198" height="197"/></clipPath><clipPath id="clip2"><rect x="384" y="125" width="198" height="198"/></clipPath><clipPath id="clip3"><rect x="384" y="125" width="198" height="198"/></clipPath></defs><g clip-path="url(#clip0)" transform="translate(-368 -115)"><path d="M369 228.5C369 165.816 419.816 115 482.5 115 545.184 115 596 165.816 596 228.5 596 291.184 545.184 342 482.5 342 419.816 342 369 291.184 369 228.5Z" fill="#BDDCFF" fill-rule="evenodd"/><g clip-path="url(#clip1)"><g clip-path="url(#clip2)"><g clip-path="url(#clip3)"><path d="M104.656 90.2917 147.75 90.2917C151.239 90.2917 153.906 87.624 153.906 84.1354 153.906 80.6469 151.239 77.9792 147.75 77.9792L53.3542 77.9792C49.8656 77.9792 47.1979 80.6469 47.1979 84.1354 47.1979 87.624 49.8656 90.2917 53.3542 90.2917L92.3438 90.2917 92.3438 141.594 80.0313 141.594 80.0313 153.906 116.969 153.906 116.969 141.594 104.656 141.594 104.656 90.2917Z" fill="#007BFF" transform="matrix(1.00508 0 -0 1 384 125)"/><path d="M72.0281 106.708 34.2698 106.708 28.7292 50.6865 28.7292 50.6865C28.3187 47.6083 25.8562 45.1458 22.5729 45.1458 19.0844 45.1458 16.4167 47.8135 16.4167 51.3021 16.4167 51.5073 16.4167 51.7125 16.4167 51.9177L16.4167 51.9177 22.5729 112.659 16.6219 153.906 29.1396 153.906 31.1917 139.542 59.5104 139.542 59.5104 153.906 71.8229 153.906 71.8229 119.021 72.0281 119.021C75.5167 119.021 78.1844 116.353 78.1844 112.865 78.1844 109.376 75.3115 106.708 72.0281 106.708ZM59.5104 131.333 32.2177 131.333 34.0646 119.021 59.5104 119.021 59.5104 131.333Z" fill="#007BFF" transform="matrix(1.00508 0 -0 1 384 125)"/><path d="M180.583 51.9177C180.583 51.7125 180.583 51.5073 180.583 51.3021 180.583 47.8135 177.916 45.1458 174.427 45.1458 171.349 45.1458 168.681 47.6083 168.271 50.6865L168.271 50.6865 162.73 106.708 124.972 106.708C121.483 106.708 118.816 109.376 118.816 112.865 118.816 116.353 121.483 119.021 124.972 119.021L125.177 119.021 125.177 153.906 137.49 153.906 137.49 139.542 165.808 139.542 167.86 153.906 180.378 153.906 174.427 112.659 180.583 51.9177 180.583 51.9177ZM137.49 131.333 137.49 119.021 162.935 119.021 164.782 131.333 137.49 131.333Z" fill="#007BFF" transform="matrix(1.00508 0 -0 1 384 125)"/></g></g></g></g></svg>