<?xml version="1.0" encoding="iso-8859-1"?>
<!-- Generator: Adobe Illustrator 19.0.0, SVG Export Plug-In . SVG Version: 6.00 Build 0)  -->
<svg version="1.1" id="Capa_1" xmlns="http://www.w3.org/2000/svg" xmlns:xlink="http://www.w3.org/1999/xlink" x="0px" y="0px"
	 viewBox="0 0 512 512" style="enable-background:new 0 0 512 512;" xml:space="preserve">
<g>
	<g>
		<path d="M320,344.448V64c0-35.296-28.704-64-64-64c-35.296,0-64,28.704-64,64v280.448c-20.448,18.24-32,43.904-32,71.552
			c0,52.928,43.072,96,96,96c52.928,0,96-43.072,96-96C352,388.352,340.448,362.688,320,344.448z M288,128h-16
			c-8.832,0-16,7.168-16,16c0,8.832,7.168,16,16,16h16v64h-16c-8.832,0-16,7.168-16,16c0,8.832,7.168,16,16,16h16v32h-64V64
			c0-17.632,14.368-32,32-32s32,14.368,32,32V128z"/>
	</g>
</g>
<g>
</g>
<g>
</g>
<g>
</g>
<g>
</g>
<g>
</g>
<g>
</g>
<g>
</g>
<g>
</g>
<g>
</g>
<g>
</g>
<g>
</g>
<g>
</g>
<g>
</g>
<g>
</g>
<g>
</g>
</svg>
