<?xml version="1.0" encoding="iso-8859-1"?>
<!-- Generator: Adobe Illustrator 19.0.0, SVG Export Plug-In . SVG Version: 6.00 Build 0)  -->
<svg version="1.1" id="Capa_1" xmlns="http://www.w3.org/2000/svg" xmlns:xlink="http://www.w3.org/1999/xlink" x="0px" y="0px"
	 viewBox="0 0 512 512" style="enable-background:new 0 0 512 512;" xml:space="preserve">
<g>
	<g>
		<path d="M96,341.333c-29.419,0-53.333,23.936-53.333,53.333S66.581,448,96,448c29.419,0,53.333-23.936,53.333-53.333
			S125.419,341.333,96,341.333z M96,426.667c-17.643,0-32-14.357-32-32s14.357-32,32-32c17.643,0,32,14.357,32,32
			S113.643,426.667,96,426.667z"/>
	</g>
</g>
<g>
	<g>
		<path d="M416,341.333c-29.419,0-53.333,23.936-53.333,53.333S386.581,448,416,448c29.419,0,53.333-23.936,53.333-53.333
			S445.419,341.333,416,341.333z M416,426.667c-17.643,0-32-14.357-32-32s14.357-32,32-32c17.643,0,32,14.357,32,32
			S433.643,426.667,416,426.667z"/>
	</g>
</g>
<g>
	<g>
		<path d="M487.787,262.955c-15.488-3.883-29.632-11.883-40.896-23.147l-96.192-96.171c-8.725-8.725-19.947-14.059-32.043-15.339
			l-36.971-51.072C275.691,68.949,266.005,64,255.765,64H32C14.357,64,0,78.357,0,96v256c0,29.397,23.915,53.333,53.333,53.333
			c0.512,0,0.939-0.213,1.429-0.277c-0.853-3.349-1.429-6.784-1.429-10.389C53.333,371.093,72.427,352,96,352
			c23.573,0,42.667,19.093,42.667,42.667c0,3.605-0.576,7.04-1.429,10.389c0.491,0.064,0.917,0.277,1.429,0.277h234.667
			c0.512,0,0.939-0.213,1.429-0.277c-0.853-3.349-1.429-6.784-1.429-10.389C373.333,371.093,392.427,352,416,352
			c23.573,0,42.667,19.093,42.667,42.667c0,3.605-0.576,7.04-1.429,10.389c0.491,0.064,0.917,0.277,1.429,0.277
			C488.085,405.333,512,381.397,512,352v-58.005C512,279.275,502.037,266.517,487.787,262.955z M202.667,277.333h-128
			c-5.888,0-10.667-4.779-10.667-10.667S68.779,256,74.667,256h128c5.888,0,10.667,4.779,10.667,10.667
			S208.555,277.333,202.667,277.333z M202.667,213.333h-128c-5.888,0-10.667-4.779-10.667-10.667S68.779,192,74.667,192h128
			c5.888,0,10.667,4.779,10.667,10.667S208.555,213.333,202.667,213.333z M245.333,149.333H74.667
			c-5.888,0-10.667-4.779-10.667-10.667S68.779,128,74.667,128h170.667c5.888,0,10.667,4.779,10.667,10.667
			S251.221,149.333,245.333,149.333z M330.667,320h-21.333c-5.888,0-10.667-4.779-10.667-10.667s4.779-10.667,10.667-10.667h21.333
			c5.888,0,10.667,4.779,10.667,10.667S336.555,320,330.667,320z M394.667,277.333h-128c-5.888,0-10.667-4.779-10.667-10.667
			v-85.333c0-5.888,4.779-10.667,10.667-10.667s10.667,4.779,10.667,10.667V256h117.333c5.888,0,10.667,4.779,10.667,10.667
			S400.555,277.333,394.667,277.333z"/>
	</g>
</g>
<g>
</g>
<g>
</g>
<g>
</g>
<g>
</g>
<g>
</g>
<g>
</g>
<g>
</g>
<g>
</g>
<g>
</g>
<g>
</g>
<g>
</g>
<g>
</g>
<g>
</g>
<g>
</g>
<g>
</g>
</svg>
